# xmcd CD database file
#
# Track frame offsets:
#	150
#	35100
#	58173
#	76810
#	91708
#	106951
#	124365
#	146211
#	167119
#
# Disc length: 2576 seconds
#
# Revision: 0
# Processed by: cddbd v1.5.2PL0 Copyright (c) Steve Scherf et al.
# Submitted via: CDex 1.70beta2
#
DISCID=7b0a0e09
DTITLE=Stan Getz - CD08
DYEAR=1900
DGENRE=Jazz
TTITLE0=Gladys (& Lionel Hampton)
TTITLE1=Headache (& Lionel Hampton)
TTITLE2=Of Thee I sing
TTITLE3=A handful of stars
TTITLE4=Love is here to stay
TTITLE5=Serenade in blue
TTITLE6=Indiana
TTITLE7=Without a song
TTITLE8=I don't Stand a ghost of a chance with you
EXTD=
EXTT0=
EXTT1=
EXTT2=
EXTT3=
EXTT4=
EXTT5=
EXTT6=
EXTT7=
EXTT8=
PLAYORDER=
